<svg width="14" height="14" viewBox="0 0 14 14" fill="none" xmlns="http://www.w3.org/2000/svg">
<path d="M3.4001 6.2001C2.62676 6.2001 1.96676 5.92676 1.4201 5.3801C0.873431 4.83343 0.600098 4.17343 0.600098 3.4001C0.600098 2.62676 0.873431 1.96676 1.4201 1.4201C1.96676 0.873431 2.62676 0.600098 3.4001 0.600098C4.17343 0.600098 4.83343 0.873431 5.3801 1.4201C5.92676 1.96676 6.2001 2.62676 6.2001 3.4001C6.2001 4.17343 5.92676 4.83343 5.3801 5.3801C4.83343 5.92676 4.17343 6.2001 3.4001 6.2001ZM3.4001 4.6001C3.73343 4.6001 4.01676 4.48343 4.2501 4.2501C4.48343 4.01676 4.6001 3.73343 4.6001 3.4001C4.6001 3.06676 4.48343 2.78343 4.2501 2.5501C4.01676 2.31676 3.73343 2.2001 3.4001 2.2001C3.06676 2.2001 2.78343 2.31676 2.5501 2.5501C2.31676 2.78343 2.2001 3.06676 2.2001 3.4001C2.2001 3.73343 2.31676 4.01676 2.5501 4.2501C2.78343 4.48343 3.06676 4.6001 3.4001 4.6001ZM10.6001 13.4001C9.82676 13.4001 9.16677 13.1268 8.6201 12.5801C8.07343 12.0334 7.8001 11.3734 7.8001 10.6001C7.8001 9.82676 8.07343 9.16677 8.6201 8.6201C9.16677 8.07343 9.82676 7.8001 10.6001 7.8001C11.3734 7.8001 12.0334 8.07343 12.5801 8.6201C13.1268 9.16677 13.4001 9.82676 13.4001 10.6001C13.4001 11.3734 13.1268 12.0334 12.5801 12.5801C12.0334 13.1268 11.3734 13.4001 10.6001 13.4001ZM10.6001 11.8001C10.9334 11.8001 11.2168 11.6834 11.4501 11.4501C11.6834 11.2168 11.8001 10.9334 11.8001 10.6001C11.8001 10.2668 11.6834 9.98343 11.4501 9.7501C11.2168 9.51676 10.9334 9.4001 10.6001 9.4001C10.2668 9.4001 9.98343 9.51676 9.7501 9.7501C9.51676 9.98343 9.4001 10.2668 9.4001 10.6001C9.4001 10.9334 9.51676 11.2168 9.7501 11.4501C9.98343 11.6834 10.2668 11.8001 10.6001 11.8001ZM1.1601 12.8401C1.01343 12.6934 0.940098 12.5068 0.940098 12.2801C0.940098 12.0534 1.01343 11.8668 1.1601 11.7201L11.7201 1.1601C11.8668 1.01343 12.0534 0.940098 12.2801 0.940098C12.5068 0.940098 12.6934 1.01343 12.8401 1.1601C12.9868 1.30676 13.0601 1.49343 13.0601 1.7201C13.0601 1.94676 12.9868 2.13343 12.8401 2.2801L2.2801 12.8401C2.13343 12.9868 1.94676 13.0601 1.7201 13.0601C1.49343 13.0601 1.30676 12.9868 1.1601 12.8401Z" fill="white"/>
</svg>
